<svg t="1706337452764" class="icon" viewBox="0 0 1024 1024" version="1.1" xmlns="http://www.w3.org/2000/svg" p-id="14846" width="200" height="200"><path d="M462.08 192a47.36 47.36 0 0 0 0 64l256 256-256 256a47.36 47.36 0 1 0 64 64l288.64-288.64A50.56 50.56 0 0 0 832 512a47.36 47.36 0 0 0-14.08-33.28L529.28 192a47.36 47.36 0 0 0-67.2 0z" p-id="14847" fill="#ffffff"></path><path d="M206.08 192a47.36 47.36 0 0 0 0 64l256 256-256 256a47.36 47.36 0 1 0 64 64l291.84-286.08A50.56 50.56 0 0 0 576 512a47.36 47.36 0 0 0-14.08-33.28L273.28 192a47.36 47.36 0 0 0-67.2 0z" p-id="14848" fill="#ffffff"></path></svg>