<svg t="1706371460444" class="icon" viewBox="0 0 1024 1024" version="1.1" xmlns="http://www.w3.org/2000/svg" p-id="3239" width="200" height="200"><path d="M524.202667 487.381333a17.408 17.408 0 0 1-24.405334 0L226.261333 218.325333a17.408 17.408 0 0 0-24.448 0l-25.941333 25.514667a17.493333 17.493333 0 0 0 0 24.917333l323.925333 318.549334a17.408 17.408 0 0 0 24.405334 0L848.128 268.8a17.493333 17.493333 0 0 0 0-24.917333l-25.941333-25.514667a17.408 17.408 0 0 0-24.448 0l-273.493334 269.056z" fill="#ffffff" p-id="3240"></path><path d="M524.202667 705.706667a17.408 17.408 0 0 1-24.405334 0l-273.536-269.013334a17.408 17.408 0 0 0-24.448 0l-25.941333 25.472a17.493333 17.493333 0 0 0 0 24.917334l323.925333 318.592a17.408 17.408 0 0 0 24.405334 0l323.925333-318.549334a17.493333 17.493333 0 0 0 0-24.96l-25.941333-25.472a17.408 17.408 0 0 0-24.448 0l-273.493334 269.013334z" fill="#ffffff" p-id="3241"></path></svg>