<svg t="1706371424721" class="icon" viewBox="0 0 1024 1024" version="1.1" xmlns="http://www.w3.org/2000/svg" p-id="2821" width="200" height="200"><path d="M536.618667 524.202667a17.408 17.408 0 0 1 0-24.405334l269.056-273.536a17.408 17.408 0 0 0 0-24.448l-25.514667-25.941333a17.493333 17.493333 0 0 0-24.917333 0l-318.549334 323.925333a17.408 17.408 0 0 0 0 24.405334l318.549334 323.925333a17.493333 17.493333 0 0 0 24.917333 0l25.514667-25.941333a17.408 17.408 0 0 0 0-24.448l-269.056-273.493334z" fill="#ffffff" p-id="2822"></path><path d="M318.293333 524.202667a17.408 17.408 0 0 1 0-24.405334l269.013334-273.536a17.408 17.408 0 0 0 0-24.448l-25.472-25.941333a17.493333 17.493333 0 0 0-24.917334 0l-318.592 323.925333a17.408 17.408 0 0 0 0 24.405334l318.592 323.925333a17.493333 17.493333 0 0 0 24.917334 0l25.472-25.941333a17.408 17.408 0 0 0 0-24.448l-269.013334-273.493334z" fill="#ffffff" p-id="2823"></path></svg>