<svg t="1706371437095" class="icon" viewBox="0 0 1024 1024" version="1.1" xmlns="http://www.w3.org/2000/svg" p-id="3028" width="200" height="200"><path d="M487.381333 499.797333a17.408 17.408 0 0 1 0 24.405334l-269.056 273.536a17.408 17.408 0 0 0 0 24.448l25.514667 25.941333a17.493333 17.493333 0 0 0 24.917333 0l318.549334-323.925333a17.408 17.408 0 0 0 0-24.405334L268.8 175.872a17.493333 17.493333 0 0 0-24.917333 0l-25.514667 25.941333a17.408 17.408 0 0 0 0 24.448l269.056 273.493334z" fill="#ffffff" p-id="3029"></path><path d="M705.706667 499.797333a17.408 17.408 0 0 1 0 24.405334l-269.013334 273.536a17.408 17.408 0 0 0 0 24.448l25.472 25.941333a17.493333 17.493333 0 0 0 24.917334 0l318.592-323.925333a17.408 17.408 0 0 0 0-24.405334l-318.549334-323.925333a17.493333 17.493333 0 0 0-24.96 0l-25.472 25.941333a17.408 17.408 0 0 0 0 24.448l269.013334 273.493334z" fill="#ffffff" p-id="3030"></path></svg>