<svg t="1706371410185" class="icon" viewBox="0 0 1024 1024" version="1.1" xmlns="http://www.w3.org/2000/svg" p-id="2614" width="200" height="200"><path d="M499.797333 536.618667a17.408 17.408 0 0 1 24.405334 0l273.536 269.056a17.408 17.408 0 0 0 24.448 0l25.941333-25.514667a17.493333 17.493333 0 0 0 0-24.917333l-323.925333-318.549334a17.408 17.408 0 0 0-24.405334 0L175.872 755.2a17.493333 17.493333 0 0 0 0 24.917333l25.941333 25.514667a17.408 17.408 0 0 0 24.448 0l273.493334-269.056z" fill="#ffffff" p-id="2615"></path><path d="M499.797333 318.293333a17.408 17.408 0 0 1 24.405334 0l273.536 269.013334a17.408 17.408 0 0 0 24.448 0l25.941333-25.472a17.493333 17.493333 0 0 0 0-24.917334l-323.925333-318.592a17.408 17.408 0 0 0-24.405334 0l-323.925333 318.592a17.493333 17.493333 0 0 0 0 24.917334l25.941333 25.472a17.408 17.408 0 0 0 24.448 0l273.493334-269.013334z" fill="#ffffff" p-id="2616"></path></svg>