<svg t="1701939696317" class="icon" viewBox="0 0 1024 1024" version="1.1" xmlns="http://www.w3.org/2000/svg" p-id="5745" width="200" height="200"><path d="M746.666667 426.666667H392.490667v-170.133334a119.509333 119.509333 0 1 1 239.018666 0V277.333333A25.6 25.6 0 0 0 682.666667 277.333333v-20.8a170.666667 170.666667 0 1 0-341.333334 0V426.666667h-64a106.773333 106.773333 0 0 0-106.666666 106.666666v298.666667a106.773333 106.773333 0 0 0 106.666666 106.666667h469.333334a106.773333 106.773333 0 0 0 106.666666-106.666667V533.333333a106.773333 106.773333 0 0 0-106.666666-106.666666zM533.333333 746.666667a21.333333 21.333333 0 0 1-42.666666 0v-128a21.333333 21.333333 0 0 1 42.666666 0z" fill="#646464" p-id="5746"></path></svg>
