<svg t="1706337389699" class="icon" viewBox="0 0 1024 1024" version="1.1" xmlns="http://www.w3.org/2000/svg" p-id="13748" width="200" height="200"><path d="M561.92 192a47.36 47.36 0 0 1 0 64l-256 256 256 256a47.36 47.36 0 0 1-64 64L206.08 545.92A50.56 50.56 0 0 1 192 512a47.36 47.36 0 0 1 14.08-33.28L494.72 192a47.36 47.36 0 0 1 67.2 0z" p-id="13749" fill="#ffffff"></path><path d="M817.92 192a47.36 47.36 0 0 1 0 64l-256 256 256 256a47.36 47.36 0 0 1-64 64L462.08 545.92A50.56 50.56 0 0 1 448 512a47.36 47.36 0 0 1 14.08-33.28L750.72 192a47.36 47.36 0 0 1 67.2 0z" p-id="13750" fill="#ffffff"></path></svg>
